<?xml version="1.0" encoding="utf-8"?>
<!-- Generator: Adobe Illustrator 22.1.0, SVG Export Plug-In . SVG Version: 6.00 Build 0)  -->
<svg version="1.1" xmlns="http://www.w3.org/2000/svg" xmlns:xlink="http://www.w3.org/1999/xlink" x="0px" y="0px"
	 viewBox="0 0 1190.6 841.9" style="enable-background:new 0 0 1190.6 841.9;" xml:space="preserve">
<style type="text/css">
	.st0{display:none;}
	.st1{display:inline;}
	.st2{fill:#00FF00;}
	.st3{fill:#2E3192;}
	.st4{fill:#FCAF17;}
	.st5{fill:#F26522;}
	.st6{fill:#FFFFFF;stroke:#2E3192;stroke-width:3.4599;stroke-miterlimit:10;}
	.st7{fill:#FFFFFF;}
	.st8{fill:#F26522;stroke:#2E3192;stroke-width:12.6234;stroke-miterlimit:10;}
	.st9{fill:#FFFFFF;stroke:#2E3192;stroke-width:12.6234;stroke-miterlimit:10;}
</style>
<g id="Backup" class="st0">
	<g class="st1">
		<g>
			<path class="st2" d="M803.9-181.9l12.4,7.7L782.1-119l-34.2-55.3l12.4-7.7l21.8,35.2L803.9-181.9 M760.3-192.9
				c-2,0-4,0.5-5.8,1.6l-12.4,7.7c-2.5,1.5-4.3,4-4.9,6.8s-0.2,5.8,1.4,8.3l34.2,55.3c2,3.2,5.5,5.2,9.4,5.2h0c3.8,0,7.4-2,9.4-5.2
				l34.2-55.3c1.5-2.5,2-5.5,1.4-8.3c-0.7-2.8-2.4-5.3-4.9-6.8l-12.4-7.7c-1.8-1.1-3.8-1.6-5.8-1.6c-3.7,0-7.3,1.9-9.4,5.2
				l-12.4,20.1l-12.4-20.1C767.6-191.1,764-192.9,760.3-192.9L760.3-192.9z"/>
			<path class="st2" d="M872.7-183.2v64.6h-14.4v-8.4c-3.8,2.2-8.1,3.4-12.9,3.4c-15.1,0-27.2-12.1-27.2-27.2
				c0-15.1,12.1-27.3,27.2-27.3c4.8,0,9.1,1.2,12.9,3.4v-8.4H872.7 M845.4-137.9c7.1,0,12.9-5.7,12.9-12.8c0-7.1-5.8-12.9-12.9-12.9
				s-12.8,5.8-12.8,12.9C832.6-143.6,838.3-137.9,845.4-137.9 M872.7-194.2h-14.4c-4,0-7.4,2.1-9.4,5.2c-1.2-0.1-2.4-0.2-3.5-0.2
				c-21.1,0-38.2,17.2-38.2,38.3c0,21.1,17.1,38.2,38.2,38.2c1.2,0,2.4-0.1,3.6-0.2c1.9,3.1,5.4,5.2,9.3,5.2h14.4
				c6.1,0,11-4.9,11-11v-64.6C883.7-189.2,878.8-194.2,872.7-194.2L872.7-194.2z M845.4-148.9c-1.1,0-1.8-0.8-1.8-1.8
				c0-1.1,0.8-1.9,1.8-1.9c1.1,0,1.9,0.8,1.9,1.9C847.3-149.7,846.5-148.9,845.4-148.9L845.4-148.9z"/>
			<path class="st2" d="M892.4-197.5c4.7,0,8.6,3.8,8.6,8.6c0,4.7-3.9,8.6-8.6,8.6c-4.8,0-8.6-3.9-8.6-8.6
				C883.8-193.7,887.5-197.5,892.4-197.5 M899.5-175.9v50.2h-14.4v-50.2H899.5 M892.4-208.5c-10.8,0-19.6,8.8-19.6,19.6
				c0,3.2,0.8,6.2,2.1,8.9c-0.5,1.2-0.8,2.6-0.8,4v50.2c0,6.1,4.9,11,11,11h14.4c6.1,0,11-4.9,11-11v-50.2c0-1.4-0.3-2.7-0.7-3.9
				c1.4-2.7,2.2-5.8,2.2-9C912-199.7,903.2-208.5,892.4-208.5L892.4-208.5z"/>
		</g>
		<g>
			<g>
				<path class="st2" d="M809.7-119.5l17.9,40.9l11.5-26.4l12.9,5.8l-24.5,55.7l-17.9-40.9l-17.9,40.9l-24.5-55.7l12.9-5.8
					l11.5,26.4L809.7-119.5 M809.7-130.5L809.7-130.5c-4.4,0-8.3,2.6-10.1,6.6l-7.8,17.9l-1.5-3.3c-1.2-2.7-3.4-4.8-6.1-5.8
					c-1.3-0.5-2.6-0.7-4-0.7c-1.5,0-3.1,0.3-4.5,1l-12.9,5.8c-5.5,2.5-8,8.9-5.6,14.5L781.7-39c1.8,4,5.7,6.6,10.1,6.6c0,0,0,0,0,0
					c4.4,0,8.3-2.6,10.1-6.6l7.8-17.9l7.8,17.9c1.8,4,5.7,6.6,10.1,6.6c0,0,0,0,0,0c4.4,0,8.3-2.6,10.1-6.6l24.5-55.7
					c2.4-5.5-0.1-12-5.6-14.5l-12.9-5.8c-1.4-0.6-3-1-4.5-1c-1.3,0-2.7,0.2-4,0.7c-2.7,1.1-4.9,3.2-6.1,5.8l-1.5,3.3l-7.8-17.9
					C818.1-127.9,814.1-130.5,809.7-130.5L809.7-130.5z"/>
			</g>
			<g>
				<path class="st2" d="M882-102c15.1,0,27.3,12.1,27.3,27.2v9.4h-40c1,6.1,6.5,10.8,12.7,10.8h2.2v14.3H882
					c-15.1,0-27.2-12.1-27.2-27.2v-7.2C854.8-89.9,866.9-102,882-102 M870.2-79.8h23.7c-2.1-4.6-6.5-7.9-11.8-7.9
					C876.8-87.7,872.1-84.5,870.2-79.8 M882-113c-21.1,0-38.2,17.1-38.2,38.2v7.2c0,21.1,17.1,38.2,38.2,38.2h2.2
					c6.1,0,11-4.9,11-11v-14.1h14.2c6.1,0,11-4.9,11-11v-9.4C920.3-95.9,903.1-113,882-113L882-113z"/>
			</g>
			<g>
				<path class="st2" d="M937.6-117.9v19.2c3.8-2.2,8.1-3.4,12.9-3.4c15.1,0,27.3,12.1,27.3,27.2s-12.2,27.3-27.3,27.3
					c-7,0-13.4-2.7-18.2-7l-9.1,9.1l-10-10.1l10-10v-52.5H937.6 M950.5-61.9c7.1,0,12.9-5.7,12.9-12.8c0-7.1-5.8-12.9-12.9-12.9
					c-7.1,0-12.9,5.8-12.9,12.9C937.6-67.6,943.3-61.9,950.5-61.9 M937.6-128.9h-14.4c-6.1,0-11,4.9-11,11V-70l-6.8,6.8
					c-4.3,4.3-4.3,11.2,0,15.5l10,10.1c2.1,2.1,4.9,3.2,7.8,3.3c0,0,0,0,0,0c2.9,0,5.7-1.2,7.8-3.2l2.8-2.8
					c5.2,2.5,10.9,3.8,16.7,3.8c21.1,0,38.3-17.2,38.3-38.3c0-21.1-17.2-38.2-38.3-38.2c-0.6,0-1.3,0-1.9,0v-4.9
					C948.6-124,943.6-128.9,937.6-128.9L937.6-128.9z M950.5-72.9c-1.1,0-1.9-0.8-1.9-1.8c0-1.1,0.8-1.9,1.9-1.9s1.9,0.8,1.9,1.9
					C952.4-73.7,951.6-72.9,950.5-72.9L950.5-72.9z"/>
			</g>
		</g>
		<g>
			<g>
				<path class="st2" d="M921.6-172.7l18.9,22.8v-14.2h7.6v35l-18.9-22.8v14.2h-7.6V-172.7 M921.6-183.7c-1.2,0-2.5,0.2-3.7,0.7
					c-4.4,1.6-7.3,5.7-7.3,10.3v35c0,6.1,4.9,11,11,11h7.6c2,0,3.8-0.5,5.4-1.4l5,6c2.1,2.6,5.3,4,8.5,4c1.2,0,2.5-0.2,3.7-0.7
					c4.4-1.6,7.3-5.7,7.3-10.3v-35c0-6.1-4.9-11-11-11h-7.6c-2,0-3.8,0.5-5.4,1.4l-5-6C927.9-182.2,924.8-183.7,921.6-183.7
					L921.6-183.7z"/>
			</g>
			<g>
				<path class="st2" d="M982.5-167.9v34h-7.6v-4.4c-2,1.1-4.3,1.8-6.8,1.8c-7.9,0-14.3-6.4-14.3-14.3s6.4-14.4,14.3-14.4
					c2.5,0,4.8,0.6,6.8,1.8v-4.4H982.5 M968.1-144.1c3.8,0,6.8-3,6.8-6.8s-3-6.8-6.8-6.8s-6.8,3-6.8,6.8S964.3-144.1,968.1-144.1
					 M982.5-178.9h-7.6c-2.8,0-5.3,1-7.2,2.7c-13.8,0.2-24.9,11.5-24.9,25.4c0,13.9,11.2,25.2,25,25.3c1.9,1.6,4.4,2.6,7.1,2.6h7.6
					c6.1,0,11-4.9,11-11v-34C993.5-174,988.5-178.9,982.5-178.9L982.5-178.9z"/>
			</g>
		</g>
		<g>
			<path d="M782.1-146.7l21.8-35.2l12.4,7.7L782.1-119l-34.2-55.3l12.4-7.7L782.1-146.7z"/>
			<path d="M872.7-183.2v64.6h-14.4v-8.4c-3.8,2.2-8.1,3.4-12.9,3.4c-15.1,0-27.2-12.1-27.2-27.2s12.1-27.3,27.2-27.3
				c4.8,0,9.1,1.2,12.9,3.4v-8.4H872.7z M832.6-150.8c0,7.1,5.7,12.8,12.8,12.8s12.9-5.7,12.9-12.8c0-7.1-5.8-12.9-12.9-12.9
				S832.6-157.9,832.6-150.8z"/>
			<path d="M892.4-180.2c-4.8,0-8.6-3.9-8.6-8.6c0-4.8,3.8-8.6,8.6-8.6c4.7,0,8.6,3.8,8.6,8.6C901-184.1,897.1-180.2,892.4-180.2z
				 M899.5-125.7h-14.4v-50.2h14.4V-125.7z"/>
		</g>
		<g>
			<g>
				<path d="M791.8-78.6l17.9-40.9l17.9,40.9l11.5-26.4l12.9,5.8l-24.5,55.7l-17.9-40.9l-17.9,40.9l-24.5-55.7l12.9-5.8L791.8-78.6z
					"/>
				<path d="M882-54.7h2.2v14.3H882c-15.1,0-27.2-12.1-27.2-27.2v-7.2c0-15.1,12.1-27.2,27.2-27.2s27.3,12.1,27.3,27.2v9.4h-40
					C870.4-59.3,875.8-54.7,882-54.7z M882.1-87.7c-5.3,0-10,3.3-11.9,7.9h23.7C891.8-84.4,887.4-87.7,882.1-87.7z"/>
				<path d="M950.5-102c15.1,0,27.3,12.1,27.3,27.2s-12.2,27.3-27.3,27.3c-7,0-13.4-2.7-18.2-7l-9.1,9.1l-10-10.1l10-10v-52.5h14.4
					v19.2C941.4-100.8,945.7-102,950.5-102z M937.6-74.7c0,7.1,5.8,12.8,12.9,12.8c7.1,0,12.9-5.7,12.9-12.8
					c0-7.1-5.8-12.9-12.9-12.9C943.3-87.7,937.6-81.9,937.6-74.7z"/>
			</g>
		</g>
		<g>
			<g>
				<path d="M948.1-129l-18.9-22.8v14.2h-7.6v-35l18.9,22.8v-14.2h7.6V-129z"/>
				<path d="M982.5-167.9v34h-7.6v-4.4c-2,1.1-4.3,1.8-6.8,1.8c-7.9,0-14.3-6.4-14.3-14.3s6.4-14.4,14.3-14.4c2.5,0,4.8,0.6,6.8,1.8
					v-4.4H982.5z M961.3-150.8c0,3.8,3,6.8,6.8,6.8c3.8,0,6.8-3,6.8-6.8c0-3.8-3-6.8-6.8-6.8C964.3-157.6,961.3-154.6,961.3-150.8z"
					/>
			</g>
		</g>
	</g>
</g>
<g id="Layout">
	<g>
		<g>
			<g>
				<path class="st3" d="M-629.2,382.9c5.2,0,9.5-4.2,9.5-9.4c0-5.2-4.2-9.5-9.5-9.5c-5.2,0-9.4,4.2-9.4,9.5
					C-638.6,378.7-634.4,382.9-629.2,382.9z"/>
				<path class="st3" d="M-602.3,419.7c-3.9,0-7.3,2.4-8.7,5.8h17.4C-595.1,422.2-598.3,419.7-602.3,419.7z"/>
				<path class="st3" d="M-552.1,438.7c5.2,0,9.5-4.2,9.5-9.4c0-5.2-4.2-9.5-9.5-9.5c-5.2,0-9.5,4.2-9.5,9.5
					C-561.5,434.5-557.3,438.7-552.1,438.7z"/>
				<path class="st3" d="M-539.2,368.4c-2.8,0-5,2.2-5,5s2.2,5,5,5c2.8,0,5-2.2,5-5S-536.4,368.4-539.2,368.4z"/>
				<path class="st3" d="M-581.4,355c0-1-0.2-2-0.5-2.9c1-2,1.6-4.2,1.6-6.6c0-7.9-6.5-14.4-14.4-14.4c-6.6,0-12.2,4.5-13.9,10.5
					c-0.2,0-0.4,0-0.6,0h-10.6c-2.9,0-5.5,1.5-6.9,3.8c-0.9-0.1-1.7-0.1-2.6-0.1c-5.9,0-11.4,1.8-15.9,4.9c-0.4-0.4-0.8-0.7-1.3-1
					l-9.1-5.6c-1.3-0.8-2.8-1.2-4.2-1.2c-2.7,0-5.3,1.4-6.9,3.8l-9.1,14.8l-9.1-14.8c-1.5-2.5-4.2-3.8-6.9-3.8
					c-1.4,0-2.9,0.4-4.2,1.2l-9.1,5.6c-1.8,1.1-3.1,2.9-3.6,5c-0.5,2.1-0.1,4.3,1,6.1l24.9,40.3l-7.1,3.2c-4.1,1.8-5.9,6.6-4.1,10.6
					l18,40.9c1.3,2.9,4.2,4.8,7.4,4.8c0,0,0,0,0,0c3.2,0,6.1-1.9,7.4-4.8l5.8-13.1l5.8,13.1c1.3,2.9,4.2,4.8,7.4,4.8c0,0,0,0,0,0
					c3.2,0,6.1-1.9,7.4-4.8l5.6-12.9c3.5,11.5,14.2,20,26.9,20h1.6c4.5,0,8.1-3.6,8.1-8.1v-10.3h5.2c0.2,1.8,0.9,3.6,2.3,4.9
					l7.3,7.4c1.5,1.5,3.6,2.4,5.7,2.4c0,0,0,0,0,0c2.1,0,4.2-0.9,5.7-2.4l2-2c3.8,1.8,8,2.8,12.3,2.8c15.5,0,28.1-12.6,28.1-28.1
					c0-15.5-12.6-28.1-28.1-28.1c-0.5,0-0.9,0-1.4,0v-3.6c0,0,0-0.1,0-0.1c0.8,0,1.6-0.2,2.4-0.5c2.8-1,4.7-3.4,5.2-6.2
					c2,0.8,4.2,1.2,6.5,1.3c1.4,1.2,3.2,1.9,5.2,1.9h5.6c4.5,0,8.1-3.6,8.1-8.1v-25c0-4.5-3.6-8.1-8.1-8.1h-5.6c-2,0-3.9,0.7-5.3,2
					c-3.4,0.1-6.6,1-9.3,2.7c-1.4-1.1-3.2-1.8-5.1-1.8h-5.6c-1.5,0-2.8,0.4-4,1.1l-3.7-4.4c-1.6-1.9-3.9-2.9-6.2-2.9
					c-0.9,0-1.8,0.2-2.7,0.5c-3.2,1.2-5.3,4.2-5.3,7.6L-581.4,355z M-573.3,357.4l13.9,16.8v-10.5h4.4c-1.7,2.8-2.7,6.2-2.7,9.7
					c0,4.3,1.5,8.2,3.9,11.4v4.6l-13.9-16.8v10.5h-5.6V357.4z M-589.5,391.9H-600V355h10.6V391.9z M-594.7,339.2
					c3.5,0,6.3,2.8,6.3,6.3c0,3.5-2.8,6.3-6.3,6.3c-3.5,0-6.3-2.8-6.3-6.3C-601,342-598.3,339.2-594.7,339.2z M-619.7,355.9v-6.2
					h10.6v47.4h-10.6V391c-2.8,1.6-5.9,2.5-9.5,2.5c-11.1,0-20-8.9-20-20c0-1.8,0.3-3.6,0.7-5.3l4.8-7.7c0.3-0.5,0.5-1,0.7-1.5
					c3.6-3.4,8.4-5.5,13.8-5.5C-625.6,353.4-622.5,354.3-619.7,355.9z M-691.6,350.6l16,25.9l16-25.9l8.6,5.3
					c-2.1,2.6-3.7,5.6-4.8,8.9l-19.8,32l-25.1-40.6L-691.6,350.6z M-642.2,452.2l-13.2-30l-13.1,30l-18-40.9l9.5-4.2l8.5,19.3
					l13.1-30l13.2,30l8.5-19.3l9.5,4.2l-0.4,1c-2.6,3.4-4.4,7.5-5.2,11.9L-642.2,452.2z M-611.6,436.1c0.8,4.5,4.7,7.9,9.3,7.9h1.6
					v10.5h-1.6c-11.1,0-20-8.9-20-20v-5.3c0-0.9,0.1-1.8,0.2-2.7l4.4-10.1c3.7-4.4,9.2-7.2,15.4-7.2c11.1,0,20,8.9,20,20v5.7
					l-1.2,1.2H-611.6z M-552.1,409.2c11.1,0,20,8.9,20,20c0,11.1-9,20-20,20c-5.1,0-9.9-2-13.3-5.1l-6.7,6.7l-7.2-7.2
					c2.2-0.9,3.9-2.7,4.7-5l2.5-2.5v-38.5h10.6v14.1C-558.8,410.1-555.6,409.2-552.1,409.2z M-528.6,385.9h-5.6v-3.2
					c-1.5,0.8-3.1,1.3-5,1.3c-2.5,0-4.8-0.9-6.6-2.3v-16.4c1.8-1.5,4.1-2.3,6.6-2.3c1.9,0,3.5,0.5,5,1.3v-3.3h5.6V385.9z"/>
			</g>
			<g>
				<g>
					<path class="st4" d="M-675.7,376.4l16-25.9l9.1,5.6l-25.1,40.6l-25.1-40.6l9.1-5.6L-675.7,376.4z"/>
					<path class="st4" d="M-609.1,349.7v47.4h-10.6V391c-2.8,1.6-5.9,2.5-9.5,2.5c-11.1,0-20-8.9-20-20c0-11.1,8.9-20,20-20
						c3.5,0,6.7,0.9,9.5,2.5v-6.2H-609.1z M-638.6,373.5c0,5.2,4.2,9.4,9.4,9.4c5.2,0,9.5-4.2,9.5-9.4c0-5.2-4.2-9.5-9.5-9.5
						C-634.4,364-638.6,368.2-638.6,373.5z"/>
					<path class="st4" d="M-594.7,351.8c-3.5,0-6.3-2.8-6.3-6.3c0-3.5,2.8-6.3,6.3-6.3c3.5,0,6.3,2.8,6.3,6.3
						C-588.4,349-591.2,351.8-594.7,351.8z M-589.5,391.9H-600V355h10.6V391.9z"/>
				</g>
				<g>
					<g>
						<path class="st4" d="M-668.5,426.4l13.1-30l13.2,30l8.5-19.3l9.5,4.2l-18,40.9l-13.2-30l-13.1,30l-18-40.9l9.5-4.2
							L-668.5,426.4z"/>
						<path class="st4" d="M-602.3,444h1.6v10.5h-1.6c-11.1,0-20-8.9-20-20v-5.3c0-11.1,8.9-20,20-20s20,8.9,20,20v6.9h-29.3
							C-610.9,440.6-606.9,444-602.3,444z M-602.3,419.7c-3.9,0-7.3,2.4-8.7,5.8h17.4C-595.1,422.2-598.3,419.7-602.3,419.7z"/>
						<path class="st4" d="M-552.1,409.2c11.1,0,20,8.9,20,20c0,11.1-9,20-20,20c-5.1,0-9.9-2-13.3-5.1l-6.7,6.7l-7.3-7.4l7.3-7.3
							v-38.5h10.6v14.1C-558.8,410.1-555.6,409.2-552.1,409.2z M-561.5,429.3c0,5.2,4.2,9.4,9.5,9.4c5.2,0,9.5-4.2,9.5-9.4
							c0-5.2-4.2-9.5-9.5-9.5C-557.3,419.8-561.5,424-561.5,429.3z"/>
					</g>
				</g>
			</g>
			<g>
				<path class="st5" d="M-553.8,389.4l-13.9-16.8v10.5h-5.6v-25.7l13.9,16.8v-10.5h5.6V389.4z"/>
				<path class="st5" d="M-528.6,360.9v25h-5.6v-3.2c-1.5,0.8-3.1,1.3-5,1.3c-5.8,0-10.5-4.7-10.5-10.5s4.7-10.6,10.5-10.6
					c1.9,0,3.5,0.5,5,1.3v-3.3H-528.6z M-544.1,373.4c0,2.8,2.2,5,5,5c2.8,0,5-2.2,5-5s-2.2-5-5-5
					C-541.9,368.4-544.1,370.7-544.1,373.4z"/>
			</g>
		</g>
		<rect x="-661.8" y="444.2" class="st6" width="139.6" height="46.5"/>
		<g>
			<g>
				<path class="st3" d="M-647.2,469.1c0-4.4,3.4-7,7-7c4.1,0,6.3,2.8,6.3,6.4c0,0.7-0.1,1.4-0.2,1.8h-10.2v-2.7h7.5l-0.6,0.8
					c0-2.2-0.9-3.3-2.7-3.3c-2,0-3.2,1.3-3.2,4c0,2.8,1.5,4,4.1,4c1.2,0,2.3-0.3,3.4-0.9l1.3,2.4c-1.5,1-3.5,1.6-5.3,1.6
					C-643.9,476.1-647.2,473.5-647.2,469.1z"/>
				<path class="st3" d="M-631,474l1.7-2.5c1.6,1,3.5,1.6,5.4,1.6c1.5,0,2.1-0.5,2.1-1.1c0-0.7-0.6-1-3.3-1.6
					c-3.6-0.8-5.1-2.1-5.1-4.2c0-2.5,2.3-4.2,6.2-4.2c2.4,0,4.4,0.9,5.8,1.8l-1.8,2.4c-1.4-0.8-2.9-1.3-4.4-1.3
					c-1.2,0-1.9,0.4-1.9,1.1c0,0.7,0.8,0.9,3.1,1.4c4.1,0.9,5.3,2.1,5.3,4.3c0,2.4-2.3,4.3-6.6,4.3
					C-626.9,476.1-629.3,475.2-631,474z"/>
				<path class="st3" d="M-611.5,470.2v-4.7h-3.4v-3l3.6-0.2l0.5-4.1h3.3v4.1h5.6v3.1h-5.6v4.7c0,2,0.9,2.8,2.8,2.8
					c1,0,1.9-0.2,2.6-0.5l0.7,2.9c-1.2,0.4-2.6,0.7-4.4,0.7C-610,476.1-611.5,473.7-611.5,470.2z"/>
				<path class="st3" d="M-598.4,470.7v-8.3h4v7.8c0,1.8,0.5,2.6,2,2.6c1,0,1.7-0.4,2.6-1.5v-8.8h4v13.4h-3.2l-0.3-1.9h-0.1
					c-1.2,1.4-2.6,2.2-4.5,2.2C-597.1,476.1-598.4,474-598.4,470.7z M-594.2,458.7l4.1-4.9l2.7,2.6l-4.9,4.2L-594.2,458.7z"/>
				<path class="st3" d="M-582.6,469.1c0-4.4,2.8-7,5.7-7c1.5,0,2.5,0.5,3.4,1.4h0.1l-0.2-2.1v-4.6h4v18.9h-3.2l-0.3-1.4h-0.1
					c-1,1-2.4,1.7-3.7,1.7C-580.4,476.1-582.6,473.5-582.6,469.1z M-573.6,471.6v-5.4c-0.7-0.7-1.5-0.9-2.2-0.9
					c-1.4,0-2.7,1.2-2.7,3.7c0,2.6,1,3.8,2.6,3.8C-575,472.8-574.3,472.5-573.6,471.6z"/>
				<path class="st3" d="M-560.1,465.5h-5.4v-3.1h9.4v13.4h-4V465.5z M-561,457.9c0-1.5,1.1-2.5,2.6-2.5s2.6,1,2.6,2.5
					c0,1.5-1.1,2.4-2.6,2.4S-561,459.3-561,457.9z"/>
				<path class="st3" d="M-550.2,469.1c0-4.5,3.3-7,6.8-7s6.8,2.6,6.8,7c0,4.4-3.3,7-6.8,7S-550.2,473.5-550.2,469.1z M-540.6,469.1
					c0-2.3-0.9-3.8-2.8-3.8c-1.8,0-2.8,1.5-2.8,3.8c0,2.3,0.9,3.8,2.8,3.8C-541.5,472.9-540.6,471.4-540.6,469.1z"/>
			</g>
		</g>
	</g>
	<g>
		<rect x="1265" y="440" class="st3" width="187.8" height="46.5"/>
		<g>
			<g>
				<path class="st4" d="M1279.1,458.2h4l2.1,6.3c0.4,1.3,0.8,2.7,1.2,4.1h0.1c0.4-1.4,0.8-2.8,1.2-4.1l2.1-6.3h3.8l-4.9,13.4h-4.6
					L1279.1,458.2z"/>
				<path class="st4" d="M1296.1,467.9c0-3,2.5-4.5,8.8-4.9c-0.1-1.2-1-1.9-2.8-1.9c-1.3,0-2.6,0.5-4.1,1.3l-1.4-2.6
					c1.9-1.1,4-1.8,6.3-1.8c3.8,0,6,2,6,6.1v7.7h-3.2l-0.3-1.5h-0.1c-1.4,1-3,1.8-4.7,1.8C1297.8,471.9,1296.1,470.1,1296.1,467.9z
					 M1304.9,467.6v-2.2c-3.9,0.2-5,1.1-5,2.2c0,0.9,0.7,1.3,1.8,1.3C1303,468.8,1304,468.3,1304.9,467.6z"/>
				<path class="st4" d="M1318.2,461.3h-5.4v-3.1h9.4v13.4h-4V461.3z M1317.4,453.7c0-1.5,1.1-2.5,2.6-2.5s2.6,1,2.6,2.5
					c0,1.5-1.1,2.4-2.6,2.4S1317.4,455.1,1317.4,453.7z"/>
				<path class="st4" d="M1345,458.2h3.2l0.3,1.8h0.1c1.2-1.1,2.6-2.1,4.6-2.1c3,0,4.4,2.1,4.4,5.4v8.3h-4v-7.8c0-1.8-0.5-2.6-2-2.6
					c-1.1,0-1.8,0.5-2.7,1.4v8.9h-4V458.2z"/>
				<path class="st4" d="M1360.9,467.9c0-3,2.5-4.5,8.8-4.9c-0.1-1.2-1-1.9-2.8-1.9c-1.3,0-2.6,0.5-4.1,1.3l-1.4-2.6
					c1.9-1.1,4-1.8,6.3-1.8c3.8,0,6,2,6,6.1v7.7h-3.2l-0.3-1.5h-0.1c-1.4,1-3,1.8-4.7,1.8C1362.6,471.9,1360.9,470.1,1360.9,467.9z
					 M1369.7,467.6v-2.2c-3.9,0.2-5,1.1-5,2.2c0,0.9,0.7,1.3,1.8,1.3C1367.8,468.8,1368.8,468.3,1369.7,467.6z"/>
				<path class="st4" d="M1391.8,458.2h3.8l0.8,6.2c0.2,1.3,0.3,2.6,0.4,4h0.1c0.1-1.4,0.3-2.7,0.6-4l0.8-4.4h2.9l0.9,4.4
					c0.3,1.3,0.5,2.6,0.7,4h0.1c0.2-1.4,0.2-2.6,0.4-4l0.7-6.2h3.7l-2.1,13.4h-4.7l-0.7-4.4c-0.2-1.2-0.3-2.4-0.5-4h-0.1
					c-0.1,1.1-0.2,2.3-0.5,4l-0.7,4.4h-4.6L1391.8,458.2z"/>
				<path class="st4" d="M1409.4,464.9c0-4.4,3.4-7,7-7c4.1,0,6.3,2.8,6.3,6.4c0,0.7-0.1,1.4-0.2,1.8h-10.2v-2.7h7.5l-0.6,0.8
					c0-2.2-0.9-3.3-2.7-3.3c-2,0-3.2,1.3-3.2,4c0,2.8,1.5,4,4.1,4c1.2,0,2.3-0.3,3.4-0.9l1.3,2.4c-1.5,1-3.5,1.6-5.3,1.6
					C1412.6,471.9,1409.4,469.3,1409.4,464.9z"/>
				<path class="st4" d="M1429.6,470.1h-0.1l-0.3,1.5h-3.1v-18.9h4v4.6l-0.1,2.1h0.1c1-1,2.4-1.5,3.7-1.5c3.3,0,5.4,2.7,5.4,6.8
					c0,4.6-2.8,7.3-5.8,7.3C1432,471.9,1430.7,471.3,1429.6,470.1z M1434.9,464.7c0-2.4-0.8-3.6-2.5-3.6c-0.8,0-1.6,0.4-2.5,1.2v5.4
					c0.7,0.7,1.6,0.9,2.3,0.9C1433.8,468.7,1434.9,467.5,1434.9,464.7z"/>
			</g>
		</g>
	</g>
	<g>
		<g>
			
				<rect x="-284.8" y="380.2" transform="matrix(1 -9.183408e-03 9.183408e-03 1 -3.9275 -1.9797)" class="st3" width="134.6" height="92.9"/>
			<g>
				<g>
					<path class="st3" d="M-227.7,416.6c2.9,0,5.2-2.3,5.1-5.2c0-2.9-2.4-5.2-5.2-5.1c-2.9,0-5.1,2.4-5.1,5.2
						C-232.9,414.3-230.6,416.6-227.7,416.6z"/>
					<path class="st3" d="M-212.8,436.6c-2.1,0-4,1.4-4.8,3.2l9.5-0.1C-208.9,438-210.7,436.6-212.8,436.6z"/>
					<path class="st3" d="M-185.2,446.8c2.9,0,5.2-2.3,5.1-5.2c0-2.9-2.4-5.2-5.2-5.1c-2.9,0-5.2,2.4-5.1,5.2
						C-190.4,444.5-188.1,446.8-185.2,446.8z"/>
					<path class="st3" d="M-178.5,408.2c-1.5,0-2.7,1.2-2.7,2.8s1.2,2.7,2.7,2.7c1.5,0,2.7-1.2,2.7-2.7
						C-175.7,409.4-177,408.2-178.5,408.2z"/>
					<path class="st3" d="M-201.7,401.1c0-0.6-0.1-1.1-0.3-1.6c0.6-1.1,0.9-2.3,0.8-3.6c0-4.3-3.6-7.9-8-7.8c-3.6,0-6.6,2.5-7.5,5.8
						c-0.1,0-0.2,0-0.3,0l-5.8,0.1c-1.6,0-3,0.9-3.8,2.1c-0.5,0-0.9-0.1-1.4-0.1c-3.2,0-6.2,1.1-8.7,2.8c-0.2-0.2-0.4-0.4-0.7-0.5
						l-5-3c-0.7-0.4-1.5-0.6-2.3-0.6c-1.5,0-2.9,0.8-3.7,2.1l-4.9,8.1l-5.1-8c-0.8-1.3-2.3-2.1-3.8-2.1c-0.8,0-1.6,0.2-2.3,0.7
						l-5,3.1c-1,0.6-1.7,1.6-2,2.8s-0.1,2.3,0.6,3.3l13.9,22l-3.9,1.8c-2.2,1-3.2,3.6-2.2,5.8l10,22.3c0.7,1.6,2.3,2.6,4.1,2.6
						c0,0,0,0,0,0c1.8,0,3.3-1.1,4-2.7l3.1-7.2l3.2,7.2c0.7,1.6,2.3,2.6,4.1,2.6c0,0,0,0,0,0c1.8,0,3.3-1.1,4-2.7l3-7.1
						c2,6.3,7.9,10.9,14.8,10.8l0.9,0c2.4,0,4.4-2,4.4-4.5l-0.1-5.7l2.8,0c0.1,1,0.5,1.9,1.3,2.7l4.1,4c0.8,0.8,2,1.3,3.1,1.3
						c0,0,0,0,0,0c1.2,0,2.3-0.5,3.1-1.3l1.1-1.1c2.1,1,4.4,1.5,6.7,1.5c8.5-0.1,15.3-7.1,15.3-15.5c-0.1-8.5-7.1-15.3-15.5-15.2
						c-0.3,0-0.5,0-0.8,0l0-2c0,0,0,0,0-0.1c0.4,0,0.9-0.1,1.3-0.3c1.5-0.6,2.6-1.9,2.8-3.4c1.1,0.4,2.3,0.7,3.6,0.7
						c0.8,0.7,1.8,1,2.9,1l3,0c2.4,0,4.4-2,4.4-4.5l-0.1-13.7c0-2.4-2-4.4-4.5-4.4l-3,0c-1.1,0-2.1,0.4-2.9,1.1
						c-1.9,0-3.6,0.6-5.1,1.5c-0.8-0.6-1.8-1-2.8-1l-3,0c-0.8,0-1.5,0.2-2.2,0.6l-2-2.4c-0.9-1-2.1-1.6-3.4-1.6
						c-0.5,0-1,0.1-1.5,0.3c-1.7,0.6-2.9,2.3-2.9,4.2L-201.7,401.1z M-197.3,402.3l7.7,9.1l-0.1-5.7l2.4,0c-0.9,1.6-1.5,3.4-1.5,5.3
						c0,2.3,0.8,4.5,2.2,6.2l0,2.5l-7.7-9.1l0.1,5.7l-3,0L-197.3,402.3z M-205.9,421.3l-5.8,0.1l-0.2-20.2l5.8-0.1L-205.9,421.3z
						 M-209.1,392.5c1.9,0,3.5,1.5,3.5,3.4c0,1.9-1.5,3.5-3.4,3.5c-1.9,0-3.5-1.5-3.5-3.4C-212.5,394-211,392.5-209.1,392.5z
						 M-222.7,401.7l0-3.4l5.8-0.1l0.2,26l-5.8,0.1l0-3.4c-1.5,0.9-3.2,1.4-5.2,1.4c-6.1,0.1-11-4.8-11-10.8c0-1,0.1-2,0.4-2.9
						l2.6-4.2c0.2-0.3,0.3-0.5,0.4-0.8c1.9-1.9,4.6-3.1,7.5-3.1C-226,400.4-224.2,400.9-222.7,401.7z M-262.1,399.2l8.9,14.1
						l8.6-14.2l4.7,2.9c-1.1,1.4-2,3.1-2.6,4.9l-10.7,17.6l-14-22.1L-262.1,399.2z M-234.5,454.6l-7.4-16.4l-7.1,16.5l-10-22.3
						l5.2-2.4l4.7,10.6l7.1-16.5l7.4,16.4l4.5-10.6l5.2,2.3l-0.2,0.6c-1.4,1.9-2.4,4.1-2.8,6.5L-234.5,454.6z M-217.9,445.7
						c0.4,2.5,2.6,4.3,5.1,4.3l0.9,0l0.1,5.8l-0.9,0c-6.1,0.1-11-4.8-11-10.8l0-2.9c0-0.5,0-1,0.1-1.5l2.4-5.6c2-2.4,5-4,8.4-4
						c6.1-0.1,11,4.8,11.1,10.8l0,3.1l-0.7,0.7L-217.9,445.7z M-185.4,430.6c6.1-0.1,11,4.8,11.1,10.8c0.1,6.1-4.8,11-10.9,11.1
						c-2.8,0-5.4-1-7.3-2.7l-3.6,3.7l-4-3.9c1.2-0.5,2.1-1.5,2.5-2.8l1.4-1.4l-0.2-21.1l5.8-0.1l0.1,7.7
						C-189,431.2-187.3,430.7-185.4,430.6z M-172.6,417.7l-3,0l0-1.8c-0.8,0.5-1.7,0.7-2.7,0.7c-1.4,0-2.6-0.5-3.6-1.2l-0.1-9
						c1-0.8,2.2-1.3,3.6-1.3c1,0,1.9,0.2,2.7,0.7l0-1.8l3,0L-172.6,417.7z"/>
				</g>
				<g>
					<g>
						<path class="st7" d="M-253.2,413.3l8.6-14.2l5,3l-13.5,22.4l-14-22.1l5-3.1L-253.2,413.3z"/>
						<path class="st7" d="M-216.9,398.3l0.2,26l-5.8,0.1l0-3.4c-1.5,0.9-3.2,1.4-5.2,1.4c-6.1,0.1-11-4.8-11-10.8
							c-0.1-6.1,4.8-11,10.8-11.1c1.9,0,3.7,0.5,5.2,1.3l0-3.4L-216.9,398.3z M-233,411.5c0,2.9,2.3,5.1,5.2,5.1s5.2-2.3,5.1-5.2
							c0-2.9-2.4-5.2-5.2-5.1C-230.7,406.3-233,408.6-233,411.5z"/>
						<path class="st7" d="M-209,399.4c-1.9,0-3.5-1.5-3.5-3.4c0-1.9,1.5-3.5,3.4-3.5c1.9,0,3.5,1.5,3.5,3.4
							C-205.6,397.8-207.1,399.4-209,399.4z M-205.9,421.3l-5.8,0.1l-0.2-20.2l5.8-0.1L-205.9,421.3z"/>
					</g>
					<g>
						<g>
							<path class="st7" d="M-249.1,440.6l7.1-16.5l7.4,16.4l4.5-10.6l5.2,2.3l-9.6,22.5l-7.4-16.4l-7.1,16.5l-10-22.3l5.2-2.4
								L-249.1,440.6z"/>
							<path class="st7" d="M-212.7,449.9l0.9,0l0.1,5.8l-0.9,0c-6.1,0.1-11-4.8-11-10.8l0-2.9c-0.1-6.1,4.8-11,10.8-11
								c6.1-0.1,11,4.8,11.1,10.8l0,3.8l-16.1,0.1C-217.4,448.1-215.2,450-212.7,449.9z M-212.8,436.6c-2.1,0-4,1.4-4.8,3.2l9.5-0.1
								C-208.9,438-210.7,436.6-212.8,436.6z"/>
							<path class="st7" d="M-185.4,430.6c6.1-0.1,11,4.8,11.1,10.8c0.1,6.1-4.8,11-10.9,11.1c-2.8,0-5.4-1-7.3-2.7l-3.6,3.7l-4.1-4
								l4-4.1l-0.2-21.1l5.8-0.1l0.1,7.7C-189,431.2-187.3,430.7-185.4,430.6z M-190.5,441.7c0,2.9,2.4,5.1,5.2,5.1
								c2.9,0,5.2-2.3,5.1-5.2c0-2.9-2.4-5.2-5.2-5.1C-188.2,436.4-190.5,438.8-190.5,441.7z"/>
						</g>
					</g>
				</g>
				<g>
					<path class="st7" d="M-186.4,419.8l-7.7-9.1l0.1,5.7l-3,0l-0.1-14.1l7.7,9.1l-0.1-5.7l3,0L-186.4,419.8z"/>
					<path class="st7" d="M-172.7,404l0.1,13.7l-3,0l0-1.8c-0.8,0.5-1.7,0.7-2.7,0.7c-3.2,0-5.8-2.5-5.8-5.7c0-3.2,2.5-5.8,5.7-5.8
						c1,0,1.9,0.2,2.7,0.7l0-1.8L-172.7,404z M-181.2,411c0,1.5,1.2,2.7,2.7,2.7s2.7-1.2,2.7-2.7c0-1.5-1.2-2.7-2.8-2.7
						C-180,408.2-181.2,409.5-181.2,411z"/>
				</g>
			</g>
		</g>
		<g>
			<g>
				
					<rect x="-319.2" y="354.7" transform="matrix(1 -9.180592e-03 9.180592e-03 1 -3.4312 -2.3102)" class="st7" width="131.7" height="35.7"/>
				<path class="st3" d="M-189.1,355.6l0.3,32.8l-128.8,1.2l-0.3-32.8L-189.1,355.6 M-186.2,352.7l-134.6,1.2l0.4,38.6l134.6-1.2
					L-186.2,352.7L-186.2,352.7z"/>
			</g>
			<g>
				<g>
					<path class="st3" d="M-304.1,375c0-4,3-6.5,6.3-6.5c3.8,0,5.8,2.5,5.9,5.9c0,0.7-0.1,1.3-0.1,1.6l-9.3,0.1l0-2.4l6.9-0.1
						l-0.6,0.7c0-2-0.9-3-2.5-3c-1.8,0-3,1.2-3,3.7c0,2.6,1.4,3.7,3.8,3.6c1.1,0,2.1-0.3,3.2-0.9l1.2,2.2c-1.4,0.9-3.2,1.5-4.9,1.5
						C-301.1,381.4-304.1,379.1-304.1,375z"/>
					<path class="st3" d="M-289.2,379.4l1.5-2.3c1.5,0.9,3.2,1.4,5,1.4c1.4,0,2-0.5,1.9-1.1c0-0.7-0.6-0.9-3-1.4
						c-3.4-0.7-4.7-1.9-4.7-3.8c0-2.3,2.1-3.9,5.6-3.9c2.2,0,4.1,0.8,5.3,1.6l-1.6,2.2c-1.2-0.7-2.7-1.2-4-1.1c-1.1,0-1.7,0.4-1.7,1
						c0,0.7,0.8,0.8,2.9,1.3c3.8,0.8,4.9,1.9,4.9,3.9c0,2.2-2.1,4-6,4C-285.4,381.3-287.7,380.4-289.2,379.4z"/>
					<path class="st3" d="M-271.3,375.7l0-4.3l-3.1,0l0-2.7l3.3-0.2l0.4-3.8l3,0l0,3.8l5.2,0l0,2.9l-5.2,0l0,4.3
						c0,1.9,0.8,2.6,2.6,2.6c0.9,0,1.7-0.2,2.4-0.5l0.7,2.6c-1.1,0.3-2.4,0.7-4,0.7C-269.9,381.1-271.3,379-271.3,375.7z"/>
					<path class="st3" d="M-259.2,376l-0.1-7.6l3.7,0l0.1,7.1c0,1.6,0.5,2.4,1.8,2.3c0.9,0,1.5-0.3,2.4-1.4l-0.1-8.1l3.7,0l0.1,12.3
						l-3,0l-0.3-1.8l-0.1,0c-1.1,1.3-2.4,2.1-4.1,2.1C-258,381-259.2,379.1-259.2,376z M-255.5,365l3.8-4.6l2.5,2.4l-4.5,3.9
						L-255.5,365z"/>
					<path class="st3" d="M-244.7,374.4c0-4,2.5-6.5,5.2-6.5c1.4,0,2.3,0.5,3.1,1.3l0.1,0l-0.2-1.9l0-4.2l3.7,0l0.2,17.4l-3,0
						l-0.3-1.3l-0.1,0c-0.9,0.9-2.2,1.6-3.4,1.6C-242.6,380.9-244.7,378.5-244.7,374.4z M-236.4,376.7l0-5c-0.7-0.6-1.3-0.8-2.1-0.8
						c-1.3,0-2.5,1.1-2.5,3.5c0,2.4,0.9,3.5,2.4,3.5C-237.7,377.8-237.1,377.5-236.4,376.7z"/>
					<path class="st3" d="M-224.1,370.9l-5,0l0-2.9l8.6-0.1l0.1,12.3l-3.7,0L-224.1,370.9z M-225,363.9c0-1.3,1-2.3,2.4-2.3
						c1.4,0,2.4,0.9,2.4,2.2c0,1.3-1,2.2-2.4,2.3C-223.9,366.2-224.9,365.3-225,363.9z"/>
					<path class="st3" d="M-214.9,374.2c0-4.1,3-6.5,6.2-6.5s6.3,2.3,6.3,6.4c0,4.1-3,6.5-6.2,6.5S-214.9,378.2-214.9,374.2z
						 M-206.1,374.1c0-2.1-0.9-3.5-2.6-3.5c-1.7,0-2.5,1.4-2.5,3.5c0,2.1,0.9,3.5,2.6,3.5C-206.9,377.6-206.1,376.2-206.1,374.1z"/>
				</g>
			</g>
		</g>
	</g>
	<g>
		<rect x="1247.3" y="400.1" class="st6" width="139.6" height="46.5"/>
		<g>
			<g>
				<path class="st3" d="M1262.1,425c0-4.4,3.4-7,7-7c4.1,0,6.3,2.8,6.3,6.4c0,0.7-0.1,1.4-0.2,1.8H1265v-2.7h7.5l-0.6,0.8
					c0-2.1-0.9-3.3-2.7-3.3c-2,0-3.2,1.3-3.2,4c0,2.8,1.5,4,4.1,4c1.2,0,2.3-0.3,3.4-0.9l1.3,2.4c-1.5,1-3.5,1.6-5.3,1.6
					C1265.4,432,1262.1,429.5,1262.1,425z"/>
				<path class="st3" d="M1278.2,430l1.7-2.5c1.6,1,3.5,1.6,5.4,1.6c1.5,0,2.1-0.5,2.1-1.1c0-0.7-0.6-1-3.3-1.6
					c-3.6-0.8-5.1-2.1-5.1-4.2c0-2.5,2.3-4.2,6.2-4.2c2.4,0,4.4,0.9,5.8,1.8l-1.8,2.4c-1.4-0.8-2.9-1.3-4.4-1.3
					c-1.2,0-1.9,0.4-1.9,1.1c0,0.7,0.8,0.9,3.1,1.4c4.1,0.9,5.3,2.1,5.3,4.3c0,2.4-2.3,4.3-6.6,4.3
					C1282.4,432,1279.9,431.1,1278.2,430z"/>
				<path class="st3" d="M1297.7,426.2v-4.7h-3.4v-3l3.6-0.2l0.5-4.1h3.3v4.1h5.6v3.1h-5.6v4.7c0,2,0.9,2.8,2.8,2.8
					c1,0,1.9-0.2,2.6-0.5l0.7,2.9c-1.2,0.4-2.6,0.7-4.4,0.7C1299.2,432,1297.7,429.7,1297.7,426.2z"/>
				<path class="st3" d="M1310.9,426.6v-8.3h4v7.8c0,1.8,0.5,2.6,2,2.6c1,0,1.7-0.4,2.6-1.5v-8.8h4v13.4h-3.2l-0.3-1.9h-0.1
					c-1.2,1.4-2.6,2.2-4.5,2.2C1312.2,432,1310.9,430,1310.9,426.6z M1315.1,414.6l4.1-4.9l2.7,2.6l-4.9,4.2L1315.1,414.6z"/>
				<path class="st3" d="M1326.7,425c0-4.4,2.8-7,5.7-7c1.5,0,2.5,0.5,3.4,1.4h0.1l-0.2-2.1v-4.6h4v18.9h-3.2l-0.3-1.4h-0.1
					c-1,1-2.4,1.7-3.7,1.7C1328.9,432,1326.7,429.4,1326.7,425z M1335.7,427.5v-5.4c-0.7-0.7-1.5-0.9-2.2-0.9
					c-1.4,0-2.7,1.2-2.7,3.7c0,2.6,1,3.8,2.6,3.8C1334.3,428.8,1335,428.5,1335.7,427.5z"/>
				<path class="st3" d="M1349.1,421.4h-5.4v-3.1h9.4v13.4h-4V421.4z M1348.3,413.8c0-1.5,1.1-2.5,2.6-2.5s2.6,1,2.6,2.5
					c0,1.5-1.1,2.4-2.6,2.4S1348.3,415.3,1348.3,413.8z"/>
				<path class="st3" d="M1359.1,425c0-4.5,3.3-7,6.8-7s6.8,2.6,6.8,7c0,4.4-3.3,7-6.8,7S1359.1,429.5,1359.1,425z M1368.7,425
					c0-2.3-0.9-3.8-2.8-3.8c-1.8,0-2.8,1.5-2.8,3.8c0,2.3,0.9,3.8,2.8,3.8C1367.7,428.8,1368.7,427.3,1368.7,425z"/>
			</g>
		</g>
	</g>
	<g>
		<rect x="263" y="399.7" class="st8" width="685.2" height="169.6"/>
		<g>
			<path class="st7" d="M314.7,466.2h14.6l7.7,23c1.6,4.9,2.9,9.9,4.4,15h0.4c1.5-5.1,2.8-10.1,4.4-15l7.7-23h13.9L349.7,515h-16.6
				L314.7,466.2z"/>
			<path class="st7" d="M376.7,501.5c0-11,9.1-16.5,32.1-17.9c-0.5-4.4-3.8-7-10.4-7c-4.7,0-9.4,1.8-14.9,4.6l-5.2-9.5
				c6.8-3.9,14.6-6.6,22.9-6.6c13.7,0,22.1,7.1,22.1,22.1V515h-11.8l-1-5.5h-0.4c-4.9,3.7-11.1,6.7-17.3,6.7
				C382.9,516.2,376.7,509.7,376.7,501.5z M408.9,500.3v-8c-14.4,0.7-18.2,3.8-18.2,8c0,3.1,2.7,4.7,6.7,4.7
				C401.7,505,405.4,503,408.9,500.3z"/>
			<path class="st7" d="M457.2,477.5h-19.7v-11.4h34.2V515h-14.5V477.5z M454.2,449.7c0-5.3,4-9,9.6-9s9.6,3.7,9.6,9
				c0,5.3-4,8.9-9.6,8.9S454.2,455,454.2,449.7z"/>
			<path class="st7" d="M555.1,466.2h11.8l1,6.5h0.4c4.2-4.2,9.6-7.7,16.9-7.7c11,0,15.9,7.6,15.9,19.9V515h-14.5v-28.3
				c0-6.5-1.9-9.4-7.2-9.4c-3.9,0-6.5,1.8-9.9,5.1V515h-14.5V466.2z"/>
			<path class="st7" d="M613.1,501.5c0-11,9.1-16.5,32.1-17.9c-0.5-4.4-3.8-7-10.4-7c-4.7,0-9.4,1.8-14.9,4.6l-5.2-9.5
				c6.8-3.9,14.6-6.6,22.9-6.6c13.7,0,22.1,7.1,22.1,22.1V515h-11.8l-1-5.5h-0.4c-4.9,3.7-11,6.7-17.3,6.7
				C619.3,516.2,613.1,509.7,613.1,501.5z M645.3,500.3v-8c-14.4,0.7-18.2,3.8-18.2,8c0,3.1,2.7,4.7,6.7,4.7
				C638.1,505,641.8,503,645.3,500.3z"/>
			<path class="st7" d="M725.7,466.2h14l3,22.7c0.6,4.8,1,9.5,1.6,14.5h0.3c0.5-5,1.2-9.8,2.3-14.5l3.1-16.2h10.5l3.2,16.2
				c0.9,4.8,1.8,9.5,2.5,14.5h0.4c0.6-5,0.9-9.7,1.4-14.5l2.7-22.7h13.5l-7.5,48.9h-17l-2.7-15.9c-0.6-4.2-1.2-8.9-1.8-14.5h-0.4
				c-0.4,4.1-0.9,8.3-1.7,14.5l-2.6,15.9h-16.7L725.7,466.2z"/>
			<path class="st7" d="M789.8,490.6c0-16,12.3-25.6,25.4-25.6c15.1,0,23,10.2,23,23.5c0,2.7-0.4,5.3-0.6,6.5h-37.1v-9.7h27.3
				l-2.3,2.8c0-7.8-3.4-12-9.8-12c-7.2,0-11.9,4.9-11.9,14.6c0,10.1,5.5,14.6,15,14.6c4.4,0,8.3-1.2,12.6-3.4l4.8,8.7
				c-5.6,3.6-12.8,5.7-19.4,5.7C801.7,516.2,789.8,506.8,789.8,490.6z"/>
			<path class="st7" d="M863.5,509.7h-0.4L862,515h-11.3v-69h14.5v16.8l-0.5,7.7h0.4c3.6-3.5,8.6-5.6,13.4-5.6
				c12.2,0,19.7,9.8,19.7,24.8c0,16.9-10.2,26.5-21.1,26.5C872.3,516.2,867.5,514,863.5,509.7z M883.2,490c0-8.8-2.9-13.1-9-13.1
				c-3.1,0-6,1.3-9,4.5v19.7c2.7,2.4,5.8,3.2,8.4,3.2C878.8,504.3,883.2,500.1,883.2,490z"/>
		</g>
		<g>
			<rect x="198.5" y="254.2" class="st9" width="509.4" height="169.6"/>
			<g>
				<path class="st3" d="M252.5,345.1c0-16,12.3-25.6,25.4-25.6c15.1,0,23,10.2,23,23.5c0,2.7-0.4,5.3-0.6,6.5h-37.1v-9.7h27.3
					l-2.3,2.8c0-7.8-3.4-12-9.8-12c-7.2,0-11.9,4.9-11.9,14.6c0,10.1,5.5,14.6,15,14.6c4.4,0,8.3-1.2,12.6-3.4l4.8,8.7
					c-5.6,3.6-12.8,5.7-19.4,5.7C264.4,370.7,252.5,361.3,252.5,345.1z"/>
				<path class="st3" d="M311.4,363.2l6.2-9c6,3.7,12.7,5.8,19.7,5.8c5.4,0,7.8-1.8,7.8-4.2c0-2.7-2.4-3.7-12-5.7
					c-13.3-2.8-18.6-7.7-18.6-15.3c0-9.1,8.5-15.3,22.5-15.3c8.7,0,16.1,3.4,21.2,6.7l-6.5,8.7c-4.9-3-10.6-4.7-16-4.7
					c-4.5,0-6.8,1.6-6.8,3.9c0,2.7,3,3.4,11.3,5.2c15.1,3.4,19.3,7.7,19.3,15.6c0,8.8-8.4,15.8-24.1,15.8
					C326.6,370.7,317.6,367.3,311.4,363.2z"/>
				<path class="st3" d="M382.5,349.3V332h-12.3v-10.8l13-0.6l1.9-14.9h12v14.9h20.6V332H397v17.1c0,7.4,3.1,10.2,10.3,10.2
					c3.7,0,6.8-0.7,9.7-1.7l2.6,10.5c-4.3,1.3-9.5,2.6-16,2.6C388,370.7,382.5,362.1,382.5,349.3z"/>
				<path class="st3" d="M430.5,350.8v-30.2H445V349c0,6.5,1.7,9.4,7.1,9.4c3.6,0,6.1-1.3,9.5-5.6v-32.1h14.5v48.9h-11.8l-1-7h-0.4
					c-4.3,5-9.4,8.2-16.5,8.2C435.3,370.7,430.5,363.1,430.5,350.8z M445.8,307.2l15.1-18l9.8,9.6L453,314.3L445.8,307.2z"/>
				<path class="st3" d="M488.2,345.1c0-16,10.3-25.6,20.9-25.6c5.4,0,9,1.9,12.3,5.3h0.3l-0.7-7.6v-16.6h14.5v69h-11.8l-1-5h-0.4
					c-3.6,3.5-8.7,6.2-13.5,6.2C496.3,370.7,488.2,361.1,488.2,345.1z M521,354.3v-19.7c-2.6-2.4-5.3-3.2-8.2-3.2
					c-5.3,0-9.9,4.3-9.9,13.6c0,9.6,3.5,13.9,9.5,13.9C515.8,358.8,518.5,357.6,521,354.3z"/>
				<path class="st3" d="M570.1,332h-19.7v-11.4h34.2v48.9h-14.5V332z M567,304.2c0-5.3,4-9,9.6-9s9.6,3.7,9.6,9
					c0,5.3-4,8.9-9.6,8.9S567,309.5,567,304.2z"/>
				<path class="st3" d="M606.4,345.1c0-16.3,12-25.6,24.9-25.6c12.9,0,24.9,9.4,24.9,25.6c0,16.2-12,25.6-24.9,25.6
					C618.4,370.7,606.4,361.3,606.4,345.1z M641.4,345.1c0-8.5-3.4-13.9-10.1-13.9c-6.7,0-10.1,5.5-10.1,13.9
					c0,8.4,3.4,13.9,10.1,13.9C638,359,641.4,353.6,641.4,345.1z"/>
			</g>
		</g>
	</g>
</g>
<g id="Layer_3">
</g>
<g id="Layer_4">
</g>
</svg>
