<svg xmlns="http://www.w3.org/2000/svg" viewBox="0 0 679 451">
  <defs>
    <style>
      .cls-1 {
        fill: #fff;
      }

      .cls-1, .cls-2 {
        stroke: #fcaf17;
      }

      .cls-1, .cls-2, .cls-3 {
        stroke-width: 2px;
      }

      .cls-2, .cls-3, .cls-9 {
        fill: none;
      }

      .cls-3 {
        stroke: #fbaf1a;
        stroke-miterlimit: 10;
      }

      .cls-4 {
        fill: #fbaf1a;
      }

      .cls-5, .cls-6 {
        fill: #fcaf17;
      }

      .cls-6 {
        font-size: 12px;
        font-family: SourceCodePro-Bold, Source Code Pro;
        font-weight: 700;
      }

      .cls-7 {
        letter-spacing: 0.05em;
      }

      .cls-8 {
        stroke: none;
      }
    </style>
  </defs>
  <g id="Group_6444" data-name="Group 6444" transform="translate(1194 -5129)">
    <g id="Rectangle_609" data-name="Rectangle 609" class="cls-1" transform="translate(-1194 5129)">
      <path class="cls-8" d="M10,0H669a10,10,0,0,1,10,10V451a0,0,0,0,1,0,0H0a0,0,0,0,1,0,0V10A10,10,0,0,1,10,0Z"/>
      <path class="cls-9" d="M10,1H669a9,9,0,0,1,9,9V449a1,1,0,0,1-1,1H2a1,1,0,0,1-1-1V10A9,9,0,0,1,10,1Z"/>
    </g>
    <line id="Line_8" data-name="Line 8" class="cls-2" x2="678" transform="translate(-1193.5 5202.5)"/>
    <path id="Path_3038" data-name="Path 3038" class="cls-2" d="M-1193.5,5164.721h103.235l16.811-27.519h164.047l14.725,27.519h378.221" transform="translate(0 3.297)"/>
    <g id="Group_6440" data-name="Group 6440" transform="translate(2.82 2.364)">
      <path id="Path_3039" data-name="Path 3039" class="cls-2" d="M-1172.67,5173.636l-8.15,8.15,8.15,8.15" transform="translate(0 0)"/>
      <path id="Path_3040" data-name="Path 3040" class="cls-2" d="M-1180.82,5184.863h15.464" transform="translate(0 -3.077)"/>
    </g>
    <g id="Group_6441" data-name="Group 6441" transform="translate(-2314.356 10365.938) rotate(180)">
      <path id="Path_3039-2" data-name="Path 3039" class="cls-2" d="M-1172.67,5173.636l-8.15,8.15,8.15,8.15" transform="translate(0 0)"/>
      <path id="Path_3040-2" data-name="Path 3040" class="cls-2" d="M-1180.82,5184.863h15.464" transform="translate(0 -3.077)"/>
    </g>
    <g id="Group_6442" data-name="Group 6442" transform="translate(-0.385 512.875)">
      <g id="Group_6442-2" data-name="Group 6442" transform="translate(-1118.615 4664.203)">
        <g id="Group_6443" data-name="Group 6443" transform="translate(0 0)">
          <path id="Path_3041" data-name="Path 3041" class="cls-3" d="M13.284,13.284A7.6,7.6,0,1,1,12.956,2.21" transform="translate(-0.3 -0.3)"/>
          <g id="Group_6442-3" data-name="Group 6442" transform="translate(11.581 0.836)">
            <path id="Path_3042" data-name="Path 3042" class="cls-4" d="M39.1,4.413V4.2l1.015-.06L40,3.13,40.2,3.1l.149,1.254Z" transform="translate(-39.1 -3.1)"/>
          </g>
        </g>
      </g>
      <path id="Path_3041-2" data-name="Path 3041" class="cls-5" d="M0,4.162,4.163,0,8.325,4.162Z" transform="translate(-1100.056 4666.068) rotate(135)"/>
    </g>
    <g id="Rectangle_610" data-name="Rectangle 610" class="cls-1" transform="translate(-1074 5174)">
      <rect class="cls-8" width="547" height="23"/>
      <rect class="cls-9" x="1" y="1" width="545" height="21"/>
    </g>
    <text id="www.precisaser.com.br" class="cls-6" transform="translate(-1064 5189)"><tspan class="cls-7" x="0" y="0">www</tspan><tspan y="0">.precisaser.com.br</tspan></text>
  </g>
</svg>
